<?xml version="1.0" standalone="no"?>
<!DOCTYPE svg PUBLIC "-//W3C//DTD SVG 20010904//EN"
 "http://www.w3.org/TR/2001/REC-SVG-20010904/DTD/svg10.dtd">
<svg version="1.0" xmlns="http://www.w3.org/2000/svg"
 width="256.000000pt" height="256.000000pt" viewBox="0 0 256.000000 256.000000"
 preserveAspectRatio="xMidYMid meet">
<metadata>
Created by potrace 1.14, written by Peter Selinger 2001-2017
</metadata>
<g transform="translate(0.000000,256.000000) scale(0.100000,-0.100000)"
fill="#000000" stroke="none">
<path d="M235 2471 c-56 -25 -101 -66 -133 -120 l-27 -46 -3 -1010 c-3 -1131
-7 -1057 70 -1141 21 -23 62 -52 91 -64 l52 -23 995 0 995 -1 55 27 c84 39
125 84 150 162 19 59 19 1981 0 2049 -17 61 -81 133 -145 162 l-50 24 -1005 0
c-951 0 -1007 -1 -1045 -19z"/>
</g>
</svg>
